<svg width="150" height="150" viewBox="0 0 150 150" fill="none" xmlns="http://www.w3.org/2000/svg">
<circle cx="75" cy="75" r="75" fill="#F3F8FF"/>
<path d="M37.4826 84.9572H113.884V108.088C113.884 112.153 110.589 115.448 106.525 115.448H44.8424C40.7777 115.448 37.4826 112.153 37.4826 108.088V84.9572Z" fill="#FFCF36" stroke="#07448E" stroke-width="2.1028"/>
<path d="M87.0742 114.396C102.495 112.819 111.958 117.024 112.658 98.4497L114.235 100.377L113.71 110.716L108.803 115.623L75.3954 115.298C73.8802 115.345 73.1013 115.31 72.738 115.272L72.705 115.272C72.7018 115.271 72.6985 115.269 72.6952 115.268C72.4851 115.176 72.2983 115.222 72.6952 115.268C72.7088 115.269 72.7231 115.271 72.738 115.272L75.3954 115.298C77.5293 115.232 81.1236 115.005 87.0742 114.396Z" fill="#FFA92F" stroke="#FFA92F" stroke-width="0.350467" stroke-linecap="round"/>
<path d="M37.6812 85.1558H113.686V108.088C113.686 112.043 110.48 115.249 106.525 115.249H44.8424C40.8873 115.249 37.6812 112.043 37.6812 108.088V85.1558Z" stroke="#07448E" stroke-width="2.5"/>
<path d="M38.9292 86.7095H112.434V89.8637H38.9292V86.7095Z" fill="#FF8F29" fill-opacity="0.6"/>
<path d="M36.4312 71.6397C36.4312 70.8654 37.0588 70.2378 37.833 70.2378H113.534C114.308 70.2378 114.936 70.8654 114.936 71.6397V86.7098H36.4312V71.6397Z" fill="#07448E"/>
<rect x="38.5342" y="72.3408" width="74.2991" height="12.2664" rx="0.700935" fill="#A1BCFA"/>
<path d="M88.1685 85.4597L97.3762 71.4878H111.212L101.991 85.4597H88.1685Z" fill="white" stroke="#07448E" stroke-width="2.5"/>
<path d="M38.752 85.4597L47.9597 71.4878H61.7955L52.5749 85.4597H38.752Z" fill="white" stroke="#07448E" stroke-width="2.5"/>
<path d="M63.6353 85.4597L72.843 71.4878H86.6788L77.4582 85.4597H63.6353Z" fill="white" stroke="#07448E" stroke-width="2.5"/>
<path d="M33.5616 66.316C32.6301 63.8895 33.8421 61.1673 36.2687 60.2358L101.781 35.0879C103.65 34.3704 105.747 35.304 106.465 37.173L109.48 45.0298C110.357 47.3145 109.216 49.8777 106.932 50.7547L41.8216 75.7481C39.5884 76.6053 37.0831 75.4899 36.2258 73.2567L33.5616 66.316Z" fill="#07448E"/>
<rect x="34.5913" y="63.1304" width="74.2991" height="12.2664" rx="2.80374" transform="rotate(-21 34.5913 63.1304)" fill="#A1BCFA"/>
<path d="M84.2638 58.1144L87.8914 41.7559L100.875 36.772L97.2352 53.1352L84.2638 58.1144Z" fill="white" stroke="#07448E" stroke-width="2.5"/>
<path d="M64.2238 65.8102L67.8513 49.452L79.4472 44.9986L75.8077 61.3614L64.2238 65.8102Z" fill="white" stroke="#07448E" stroke-width="2.5"/>
<path d="M43.5724 73.6519L47.0178 57.4851L59.439 52.7105L55.801 69.0662L43.5724 73.6519Z" fill="white" stroke="#07448E" stroke-width="2.5"/>
<mask id="mask0_2208_20238" style="mask-type:alpha" maskUnits="userSpaceOnUse" x="89" y="91" width="4" height="7">
<rect x="89.3516" y="91.9663" width="3.15421" height="5.60748" rx="1.5771" fill="black"/>
</mask>
<g mask="url(#mask0_2208_20238)">
<path d="M93.2056 93.7184L89 91.2651V97.924H93.2056V93.7184Z" fill="black"/>
</g>
<mask id="mask1_2208_20238" style="mask-type:alpha" maskUnits="userSpaceOnUse" x="58" y="91" width="5" height="7">
<rect width="3.15421" height="5.60748" rx="1.5771" transform="matrix(-1 0 0 1 62.0146 91.9663)" fill="black"/>
</mask>
<g mask="url(#mask1_2208_20238)">
<path d="M58.1586 93.7184L62.3643 91.2651V97.924H58.1586V93.7184Z" fill="black"/>
</g>
<path d="M78.3115 104.912C76.9097 102.71 73.405 101.659 71.8279 103.236" stroke="black" stroke-width="1.40187" stroke-linecap="round"/>
<rect x="17.8735" y="114.954" width="114.603" height="2.45327" rx="1.22664" fill="#07448E"/>
<rect x="32.645" y="32.6118" width="5.625" height="5.625" rx="1.4356" transform="rotate(-34.5 32.645 32.6118)" fill="#FF9797"/>
<circle cx="132.191" cy="89.9531" r="2.5" fill="#97E591"/>
<path d="M112.288 79.7525C118.388 79.7525 123.334 74.8071 123.334 68.7066C123.334 62.6061 118.388 57.6606 112.288 57.6606C106.187 57.6606 101.242 62.6061 101.242 68.7066C101.242 74.8071 106.187 79.7525 112.288 79.7525Z" fill="#FD5154" stroke="#07448E" stroke-width="2.5"/>
<path d="M112.593 71.1372C112.345 71.134 112.109 71.0342 111.933 70.859C111.758 70.6839 111.659 70.4473 111.655 70.1997V64.4497C111.655 64.2011 111.754 63.9626 111.93 63.7868C112.106 63.611 112.344 63.5122 112.593 63.5122C112.841 63.5122 113.08 63.611 113.256 63.7868C113.432 63.9626 113.53 64.2011 113.53 64.4497V70.2622C113.512 70.4988 113.405 70.7198 113.231 70.8818C113.058 71.0437 112.83 71.1348 112.593 71.1372Z" fill="white" stroke="white" stroke-width="0.635849"/>
<path d="M112.593 74.5117C112.344 74.5117 112.106 74.4129 111.93 74.2371C111.754 74.0613 111.655 73.8229 111.655 73.5742C111.655 73.3256 111.754 73.0871 111.93 72.9113C112.106 72.7355 112.344 72.6367 112.593 72.6367C112.841 72.6367 113.08 72.7355 113.256 72.9113C113.432 73.0871 113.53 73.3256 113.53 73.5742C113.53 73.8229 113.432 74.0613 113.256 74.2371C113.08 74.4129 112.841 74.5117 112.593 74.5117Z" fill="white" stroke="white" stroke-width="0.635849"/>
</svg>
